<svg xmlns="http://www.w3.org/2000/svg" viewBox="0 0 632 143" width="632" height="143">
	<style>
		tspan { white-space:pre }
	</style>
	<path id="Reciclame " fill="#ffffff" d="M76.41 132.77Q69.89 132.77 66.96 129.47Q64.69 126.98 64.69 122.74Q64.69 119.37 65.71 114.97Q66.74 110.5 68.71 103.47Q70.69 96.37 71.64 91.75Q72.67 87.14 72.67 83.26Q72.67 78.5 70.69 75.86Q68.5 73.08 63.66 73.08Q60.95 73.08 58.68 73.66L46.67 130.21L25.14 130.21L45.5 34.77L67.69 31.84L60.37 66.49L61.54 66.49Q66 66.49 69.96 64.14Q73.92 61.73 76.92 57.7Q79.7 53.89 81.24 49.27Q82.85 44.66 82.85 40.34Q82.85 37.12 81.83 34.26Q80.87 31.4 78.97 29.28Q74.65 24.59 66.37 24.59Q57.22 24.59 49.75 27.08Q42.35 29.5 37 34.26Q31.58 39.02 28.72 45.83Q25.87 52.64 25.87 61.07Q25.87 65.75 26.89 68.54Q27.19 69.49 27.63 70.22Q27.92 70.73 27.92 71.25Q19.79 71.25 16.05 68.02Q11.88 64.51 11.88 56.67Q11.88 51.76 14 47Q16.13 42.17 20.01 37.7Q23.67 33.45 28.72 29.79Q33.85 26.06 39.78 23.35Q52.24 17.71 64.54 17.71Q73.04 17.71 79.48 19.68Q86 21.59 90.39 25.1Q94.5 28.4 96.55 32.72Q98.6 36.97 98.6 41.73Q98.6 48.91 94.42 55.65Q89.74 63.12 82.41 67.37Q88.2 69.12 90.54 73Q92.74 76.74 92.74 82.38Q92.74 86.55 91.79 91.32Q90.83 96 89.08 102.45Q87.1 109.63 86.22 113.43Q85.41 117.17 85.41 120.32Q85.41 123.83 86.95 126.54Q88.56 129.18 91.27 130.21Q82.26 132.77 76.41 132.77ZM122.62 131.09Q111.56 131.09 105.56 125.52Q99.18 119.59 99.18 107.28Q99.18 102.67 100.06 97.03Q101.01 91.39 102.85 85.75Q104.9 79.45 108.05 73.81Q111.27 68.17 115.52 63.85Q125.33 53.89 139.69 53.89Q148.84 53.89 153.02 58.28Q156.24 61.73 156.24 68.24Q156.24 74.62 153.46 80.26Q150.67 85.82 145.77 90.14Q140.86 94.39 134.63 96.96Q128.41 99.45 121.74 99.88Q121.38 103.69 121.38 105.89Q121.38 113.21 124.16 116Q126.58 118.49 132.22 118.49Q140.35 118.49 147.08 114.09Q149.94 112.26 152.58 109.77Q155.21 107.21 158.73 103.33L163.86 103.33Q156.75 115.34 147.52 122.44Q136.17 131.09 122.62 131.09ZM122.91 92.71Q127.09 92.41 131.04 90.29Q135 88.17 138.08 84.72Q141.15 81.21 142.91 76.89Q144.67 72.49 144.67 67.95Q144.67 64.95 143.79 63.41Q142.98 61.8 140.93 61.8Q138.22 61.8 135.44 64.44Q132.73 67.07 130.17 71.69Q127.82 76.01 125.92 81.5Q124.01 86.99 122.91 92.71ZM180.19 131.09Q169.13 131.09 163.12 125.52Q156.75 119.59 156.75 107.28Q156.75 102.67 157.63 97.03Q158.58 91.32 160.49 85.68Q164.96 71.98 173.16 63.85Q183.27 53.89 197.11 53.89Q206.12 53.89 210.44 58.21Q213.81 61.65 213.81 67.66Q213.81 72.93 211.46 75.86Q209.27 78.57 205.82 78.57Q203.33 78.57 200.55 76.81Q202.38 72.05 202.38 67.95Q202.38 65.09 201.28 63.48Q200.26 61.8 198.21 61.8Q193.81 61.8 189.05 69.56Q184.73 76.45 181.87 87.07Q178.94 97.47 178.94 105.89Q178.94 113.21 181.73 116Q184.14 118.49 189.78 118.49Q197.91 118.49 204.65 114.09Q207.51 112.26 210.15 109.77Q212.78 107.21 216.3 103.33L221.42 103.33Q214.32 115.34 205.09 122.44Q193.74 131.09 180.19 131.09ZM241.35 47.08Q238.93 47.08 236.73 46.2Q234.54 45.25 232.92 43.63Q231.31 42.1 230.36 39.9Q229.48 37.7 229.48 35.29Q229.48 32.87 230.36 30.67Q231.31 28.47 232.92 26.79Q234.54 25.1 236.73 24.23Q238.93 23.27 241.35 23.27Q243.76 23.27 245.96 24.23Q248.16 25.1 249.84 26.79Q251.53 28.47 252.41 30.67Q253.36 32.87 253.36 35.29Q253.36 37.7 252.41 39.9Q251.53 42.1 249.84 43.63Q248.16 45.25 245.96 46.2Q243.76 47.08 241.35 47.08ZM231.17 131.09Q223.99 131.09 219.81 126.84Q215.13 122.15 215.13 113.14Q215.13 108.89 216.3 103.33L226.48 55.21L248.08 55.21L237.32 106.18Q236.73 108.09 236.73 111.02Q236.73 114.09 238.12 115.34Q239.59 116.58 242.81 116.58Q245.01 116.58 247.06 115.63Q249.18 114.61 250.94 112.85Q254.53 109.26 256.36 103.33L262.66 103.33Q258.63 114.68 252.55 121.42Q247.43 126.91 240.98 129.33Q236.29 131.09 231.17 131.09ZM277.82 131.09Q266.76 131.09 260.76 125.52Q254.38 119.59 254.38 107.28Q254.38 102.67 255.26 97.03Q256.21 91.32 258.12 85.68Q262.59 71.98 270.79 63.85Q280.9 53.89 294.74 53.89Q303.75 53.89 308.07 58.21Q311.44 61.65 311.44 67.66Q311.44 72.93 309.1 75.86Q306.9 78.57 303.46 78.57Q300.97 78.57 298.18 76.81Q300.01 72.05 300.01 67.95Q300.01 65.09 298.92 63.48Q297.89 61.8 295.84 61.8Q291.44 61.8 286.68 69.56Q282.36 76.45 279.51 87.07Q276.58 97.47 276.58 105.89Q276.58 113.21 279.36 116Q281.78 118.49 287.42 118.49Q295.55 118.49 302.28 114.09Q305.14 112.26 307.78 109.77Q310.41 107.21 313.93 103.33L319.06 103.33Q311.95 115.34 302.72 122.44Q291.37 131.09 277.82 131.09ZM328.8 131.09Q321.62 131.09 317.45 126.84Q312.76 122.15 312.76 113.14Q312.76 108.89 313.93 103.33L329.97 28.18L352.16 25.18L334.95 106.18Q334.36 108.09 334.36 111.02Q334.36 114.09 335.76 115.34Q337.22 116.58 340.44 116.58Q342.64 116.58 344.69 115.63Q346.82 114.61 348.57 112.85Q352.16 109.26 353.99 103.33L360.29 103.33Q356.26 114.68 350.18 121.42Q345.06 126.91 338.61 129.33Q333.92 131.09 328.8 131.09ZM372.01 131.09Q363.44 131.09 358.17 125.74Q352.02 119.44 352.02 106.99Q352.02 101.72 353.04 95.86Q354.14 90 356.19 84.28Q360.88 71.39 369.01 63.48Q378.38 54.47 390.61 54.47Q396.69 54.47 399.7 56.6Q402.77 58.65 402.77 62.09L402.77 63.19L404.38 55.21L425.99 55.21L415.22 106.18Q414.56 108.38 414.56 111.02Q414.56 117.46 420.72 117.46Q424.82 117.46 428.19 113.29Q431.04 109.77 432.88 103.33L439.17 103.33Q435.15 114.75 429.43 121.42Q424.6 126.91 418.52 129.33Q414.05 131.09 409.07 131.09Q402.7 131.09 398.89 127.64Q395.16 124.13 394.35 117.32Q390.1 123.32 385.41 126.69Q379.41 131.09 372.01 131.09ZM381.75 116.58Q383.44 116.58 385.27 115.71Q387.17 114.83 388.93 113.21Q392.88 109.41 394.2 103.33L401.38 69.49Q401.38 68.76 401.01 67.8Q400.72 66.78 400.14 65.9Q398.38 63.78 395.23 63.78Q392.23 63.78 389.37 65.75Q386.59 67.73 384.1 71.25Q379.7 77.62 376.84 87.87Q375.53 92.41 374.87 96.88Q374.21 101.28 374.21 104.87Q374.21 112.34 376.99 114.97Q377.94 116 379.12 116.29Q380.29 116.58 381.75 116.58ZM524.06 131.09Q514.76 131.09 510.29 125.81Q506.41 121.27 506.41 114.17Q506.41 110.8 507.22 106.33Q508.09 101.86 509.78 94.83Q511.46 87.65 512.27 83.41Q513.15 79.08 513.15 75.93Q513.15 68.24 507.73 68.24Q503.92 68.24 500.7 72.27Q497.99 75.71 496.01 82.09L485.83 130.21L464.22 130.21L475.21 78.42Q475.65 76.67 475.65 74.69Q475.65 71.69 474.7 70.08Q473.45 68.1 471.11 68.1Q466.86 68.1 463.71 72.2Q460.93 75.71 458.95 82.09L448.77 130.21L427.16 130.21L443.06 55.21L464.66 55.21L463.05 62.97Q467.45 58.06 472.65 56.01Q476.75 54.47 481.36 54.47Q487.66 54.47 491.4 57.4Q495.57 60.7 496.74 67.37Q501.58 59.89 507.88 56.82Q512.34 54.62 517.62 54.62Q525.16 54.62 529.55 58.58Q534.24 62.9 534.24 71.54Q534.24 76.45 532.41 85.09Q531.68 88.68 530.65 92.34Q528.82 99.37 527.65 105.3Q527.06 108.38 527.06 110.29Q527.06 113.29 528.38 114.97Q529.77 116.58 533.07 116.58Q537.54 116.58 540.61 112.92Q542.96 110.14 545.67 103.33L551.97 103.33Q546.4 119.81 537.9 126.4Q531.9 131.09 524.06 131.09ZM567.13 131.09Q556.07 131.09 550.06 125.52Q543.69 119.59 543.69 107.28Q543.69 102.67 544.57 97.03Q545.52 91.39 547.35 85.75Q549.4 79.45 552.55 73.81Q555.78 68.17 560.02 63.85Q569.84 53.89 584.19 53.89Q593.35 53.89 597.52 58.28Q600.75 61.73 600.75 68.24Q600.75 74.62 597.96 80.26Q595.18 85.82 590.27 90.14Q585.37 94.39 579.14 96.96Q572.91 99.45 566.25 99.88Q565.88 103.69 565.88 105.89Q565.88 113.21 568.67 116Q571.08 118.49 576.72 118.49Q584.85 118.49 591.59 114.09Q594.45 112.26 597.08 109.77Q599.72 107.21 603.24 103.33L608.36 103.33Q601.26 115.34 592.03 122.44Q580.68 131.09 567.13 131.09ZM567.42 92.71Q571.6 92.41 575.55 90.29Q579.51 88.17 582.58 84.72Q585.66 81.21 587.42 76.89Q589.17 72.49 589.17 67.95Q589.17 64.95 588.29 63.41Q587.49 61.8 585.44 61.8Q582.73 61.8 579.95 64.44Q577.24 67.07 574.67 71.69Q572.33 76.01 570.42 81.5Q568.52 86.99 567.42 92.71Z" />
</svg>